HIERARCHY
ROOT Hips
{
	OFFSET 0.000000 0.000000 0.000000
	CHANNELS 6 Xposition Yposition Zposition Zrotation Yrotation Xrotation 
	JOINT LowerBack
	{
		OFFSET 0.000000 0.000000 0.000000
		CHANNELS 3 Zrotation Yrotation Xrotation
		JOINT Spine
		{
			OFFSET 0.028270 2.035590 -0.193380
			CHANNELS 3 Zrotation Yrotation Xrotation
			JOINT Spine1
			{
				OFFSET 0.056720 2.048850 -0.042750
				CHANNELS 3 Zrotation Yrotation Xrotation
				JOINT Neck
				{
					OFFSET 0.000000 0.000000 0.000000
					CHANNELS 3 Zrotation Yrotation Xrotation
					JOINT Neck1
					{
						OFFSET -0.054170 1.746240 0.172020
						CHANNELS 3 Zrotation Yrotation Xrotation
						JOINT Head
						{
							OFFSET 0.104070 1.761360 -0.123970
							CHANNELS 3 Zrotation Yrotation Xrotation
							End Site
							{
								OFFSET 0.000000 0.000000 0.000000
							}
						}
					}
				}
				JOINT LeftShoulder
				{
					OFFSET 0.000000 0.000000 0.000000
					CHANNELS 3 Zrotation Yrotation Xrotation
					JOINT LeftArm
					{
						OFFSET 3.362410 1.200890 -0.311210
						CHANNELS 3 Zrotation Yrotation Xrotation
						JOINT LeftForeArm
						{
							OFFSET 4.983000 -0.000000 -0.000000
							CHANNELS 3 Zrotation Yrotation Xrotation
							JOINT LeftHand
							{
								OFFSET 3.483560 -0.000000 -0.000000
								CHANNELS 3 Zrotation Yrotation Xrotation
								JOINT LeftFingerBase
								{
									OFFSET 0.000000 0.000000 0.000000
									CHANNELS 3 Zrotation Yrotation Xrotation
									JOINT LeftHandIndex1
									{
										OFFSET 0.715260 -0.000000 -0.000000
										CHANNELS 3 Zrotation Yrotation Xrotation
										End Site
										{
											OFFSET 0.000000 0.000000 0.000000
										}
									}
								}
								JOINT LThumb
								{
									OFFSET 0.000000 0.000000 0.000000
									CHANNELS 3 Zrotation Yrotation Xrotation
									End Site
									{
										OFFSET 0.000000 0.000000 0.000000
									}
								}
							}
						}
					}
				}
				JOINT RightShoulder
				{
					OFFSET 0.000000 0.000000 0.000000
					CHANNELS 3 Zrotation Yrotation Xrotation
					JOINT RightArm
					{
						OFFSET -3.136600 1.374050 -0.404650
						CHANNELS 3 Zrotation Yrotation Xrotation
						JOINT RightForeArm
						{
							OFFSET -5.241900 -0.000000 -0.000000
							CHANNELS 3 Zrotation Yrotation Xrotation
							JOINT RightHand
							{
								OFFSET -3.444170 -0.000000 -0.000000
								CHANNELS 3 Zrotation Yrotation Xrotation
								JOINT RightFingerBase
								{
									OFFSET 0.000000 0.000000 0.000000
									CHANNELS 3 Zrotation Yrotation Xrotation
									JOINT RightHandIndex1
									{
										OFFSET -0.622530 -0.000000 -0.000000
										CHANNELS 3 Zrotation Yrotation Xrotation
										End Site
										{
											OFFSET 0.000000 0.000000 0.000000
										}
									}
								}
								JOINT RThumb
								{
									OFFSET 0.000000 0.000000 0.000000
									CHANNELS 3 Zrotation Yrotation Xrotation
									End Site
									{
										OFFSET 0.000000 0.000000 0.000000
									}
								}
							}
						}
					}
				}
			}
		}
	}
}
}
MOTION
Frames: 10
Frame Time: 0.008333
2.838024 16.867920 0.867333 67.901316 -88.858721 -58.740205 0.686750 -4.859638 -5.646705 0.192725 -5.005167 -3.289664 -3.578145 -5.070248 2.606112 13.584881 -25.378951 -11.521258 -1.050442 -0.021039 -0.917639 0.000000 0.000000 0.000000 21.927043 8.699964 -1.999722 -37.009981 -5.006252 -14.202954 179.227805 -56.800514 179.981897 0.764362 -2.537368 -0.018251 0.154264 0.673485 0.000000 0.000000 0.000000 0.000000 0.000000 0.000000 0.000000 7.714337 -21.928226 -1.182351 30.006890 12.545858 -12.173321 179.147404 60.020510 179.925068 -11.657988 6.568641 -0.751120 0.343016 -0.585813 -0.000000 0.000000 0.000000 0.000000 0.000000 0.000000 0.000000 
2.810833 16.871622 0.873232 22.905422 -88.319711 -13.459562 0.970811 -4.722258 -6.083613 0.211753 -4.889177 -3.378674 -3.643464 -4.940710 2.666089 13.719187 -25.676053 -11.804214 -1.071583 -0.017380 -0.990454 0.000000 0.000000 0.000000 22.023091 8.850389 -2.064870 -37.291291 -5.533928 -13.501537 179.202675 -56.401594 179.981276 0.793725 -2.561772 -0.019280 0.155851 0.679377 0.000000 0.000000 0.000000 0.000000 0.000000 0.000000 0.000000 8.047145 -22.186560 -1.168645 30.051120 12.409866 -12.147207 179.108827 59.828281 179.924353 -11.982828 6.712450 -0.788199 0.357328 -0.587229 -0.000000 0.000000 0.000000 0.000000 0.000000 0.000000 0.000000 
2.787395 16.879314 0.869427 14.719674 -86.719044 -5.142074 0.602271 -4.753459 -6.363792 0.124604 -4.895931 -3.417278 -3.720060 -4.942843 2.698063 13.931659 -25.965213 -12.089544 -1.092350 -0.013825 -1.066992 0.000000 0.000000 0.000000 22.213061 8.921579 -2.120004 -37.490800 -6.106767 -12.800281 179.192721 -55.987326 179.981269 0.767265 -2.585380 -0.018619 0.158596 0.683471 0.000000 0.000000 0.000000 0.000000 0.000000 0.000000 0.000000 8.458284 -22.487908 -1.149277 30.286137 12.257019 -12.069477 179.056529 59.596922 179.923119 -12.359975 6.882258 -0.832831 0.373879 -0.591447 -0.000000 0.000000 0.000000 0.000000 0.000000 0.000000 0.000000 
2.763165 16.890874 0.864879 10.556358 -84.816248 -0.851388 0.275092 -4.835192 -6.635148 0.049456 -4.955875 -3.452608 -3.801888 -4.997462 2.728385 14.102203 -26.231978 -12.399284 -1.106417 -0.009184 -1.150764 0.000000 0.000000 0.000000 22.378078 8.993400 -2.159061 -37.720666 -6.710808 -12.077118 179.194980 -55.544574 179.981805 0.689784 -2.610469 -0.016460 0.162504 0.688386 0.000000 0.000000 0.000000 0.000000 0.000000 0.000000 0.000000 8.785990 -22.780253 -1.137350 30.663524 12.099577 -11.949472 179.005737 59.371345 179.921732 -12.741236 7.050141 -0.878863 0.390202 -0.596224 0.000000 0.000000 0.000000 0.000000 0.000000 0.000000 0.000000 
2.738181 16.906254 0.859704 8.190653 -82.741066 1.635642 -0.040797 -4.930965 -6.894434 -0.024397 -5.030158 -3.484242 -3.890851 -5.065511 2.759100 14.219175 -26.471567 -12.726729 -1.112886 -0.003428 -1.240231 0.000000 0.000000 0.000000 22.512669 9.085481 -2.183965 -37.974345 -7.355292 -11.337601 179.210144 -55.091201 179.982781 0.570208 -2.642578 -0.013102 0.167305 0.694286 0.000000 0.000000 0.000000 0.000000 0.000000 0.000000 0.000000 9.014049 -23.043375 -1.125820 31.196929 11.931731 -11.803665 178.955989 59.178974 179.920490 -13.068155 7.185536 -0.918403 0.404495 -0.600736 -0.000000 0.000000 0.000000 0.000000 0.000000 0.000000 0.000000 
2.712292 16.925324 0.854048 6.761344 -80.548270 3.180124 -0.369485 -5.023702 -7.141158 -0.103506 -5.099881 -3.512047 -3.986914 -5.128279 2.791054 14.274222 -26.679281 -13.064380 -1.111781 0.003343 -1.333591 0.000000 0.000000 0.000000 22.613808 9.206395 -2.198249 -38.248149 -8.058382 -10.584406 179.237656 -54.647995 179.984045 0.423285 -2.687292 -0.008746 0.172550 0.701385 0.000000 0.000000 0.000000 0.000000 0.000000 0.000000 0.000000 9.134156 -23.266097 -1.109705 31.882819 11.728975 -11.662757 178.907950 59.040599 179.919662 -13.288806 7.259507 -0.943459 0.415033 -0.604021 -0.000000 0.000000 0.000000 0.000000 0.000000 0.000000 0.000000 
2.685049 16.947845 0.848107 5.871008 -78.271816 4.186348 -0.723507 -5.101736 -7.379519 -0.191432 -5.152433 -3.537429 -4.089437 -5.173383 2.823082 14.262881 -26.849062 -13.402703 -1.104206 0.010860 -1.428378 0.000000 0.000000 0.000000 22.680978 9.352967 -2.205770 -38.540209 -8.825135 -9.820203 179.276065 -54.233385 179.985391 0.267518 -2.750557 -0.004087 0.177650 0.709833 -0.000000 0.000000 0.000000 0.000000 0.000000 0.000000 0.000000 9.144705 -23.436733 -1.084557 32.696525 11.455072 -11.566628 178.863387 58.965459 179.919407 -13.371473 7.249634 -0.948444 0.420659 -0.605226 -0.000000 0.000000 0.000000 0.000000 0.000000 0.000000 0.000000 
2.656432 16.973448 0.842180 5.310244 -75.939454 4.864270 -1.109991 -5.154132 -7.610558 -0.290741 -5.176274 -3.560861 -4.197744 -5.189486 2.855066 14.186899 -26.968507 -13.732524 -1.091191 0.018848 -1.522248 0.000000 0.000000 0.000000 22.712507 9.548104 -2.211581 -38.849166 -9.704584 -9.036516 179.325093 -53.884479 179.986664 0.119216 -2.835653 0.000479 0.181920 0.719851 -0.000000 0.000000 0.000000 0.000000 0.000000 0.000000 0.000000 9.051424 -23.540361 -1.049010 33.601597 11.064801 -11.560526 178.826559 58.951485 179.919773 -13.308097 7.149173 -0.931659 0.420742 -0.603863 -0.000000 0.000000 0.000000 0.000000 0.000000 0.000000 0.000000 
2.625566 17.001607 0.836799 4.955215 -73.568949 5.357941 -1.528085 -5.173819 -7.856355 -0.401209 -5.164344 -3.589758 -4.308310 -5.169896 2.877462 14.050426 -27.044049 -14.040390 -1.076990 0.026564 -1.611181 0.000000 0.000000 0.000000 22.717684 9.724397 -2.218439 -39.173127 -10.603802 -8.249781 179.378638 -53.571159 179.987607 0.001033 -2.943879 0.004454 0.184817 0.730938 -0.000000 0.000000 0.000000 0.000000 0.000000 0.000000 0.000000 8.871091 -23.571312 -0.995873 34.510647 10.530014 -11.676090 178.798444 58.978219 179.920583 -13.135040 6.946773 -0.894802 0.416611 -0.599521 -0.000000 0.000000 0.000000 0.000000 0.000000 0.000000 0.000000 
2.592805 17.031685 0.832345 4.732858 -71.183029 5.738829 -1.978665 -5.153992 -8.112455 -0.523654 -5.109577 -3.622685 -4.419431 -5.107781 2.893301 13.864917 -27.050680 -14.318585 -1.061910 0.033800 -1.693158 0.000000 0.000000 0.000000 22.688890 9.948783 -2.229933 -39.505708 -11.632486 -7.437370 179.440168 -53.353750 179.988206 -0.082286 -3.073200 0.007447 0.185689 0.743328 -0.000000 0.000000 0.000000 0.000000 0.000000 0.000000 0.000000 8.617475 -23.509137 -0.929993 35.367961 9.820151 -11.943592 178.785868 59.017639 179.921617 -12.891396 6.669707 -0.844773 0.408937 -0.592801 -0.000000 0.000000 0.000000 0.000000 0.000000 0.000000 0.000000 
